<svg width="16" height="16" viewBox="0 0 16 16" fill="none" xmlns="http://www.w3.org/2000/svg">
<path d="M11.2239 3.93097L6.56774 6.05903C6.34255 6.16196 6.16196 6.34255 6.05903 6.56774L3.93097 11.2239C3.68548 11.761 4.23871 12.3145 4.77613 12.069L9.43226 9.94097C9.65745 9.83804 9.83804 9.65745 9.94097 9.43226L12.069 4.77613C12.3145 4.23871 11.7613 3.68548 11.2239 3.93097ZM8.72839 8.72839C8.32613 9.13064 7.67387 9.13064 7.27161 8.72839C6.86935 8.32613 6.86935 7.67387 7.27161 7.27161C7.67387 6.86935 8.32613 6.86935 8.72839 7.27161C9.13064 7.67387 9.13064 8.32613 8.72839 8.72839ZM8 0C3.58161 0 0 3.58161 0 8C0 12.4184 3.58161 16 8 16C12.4184 16 16 12.4184 16 8C16 3.58161 12.4184 0 8 0ZM8 14.4516C4.44258 14.4516 1.54839 11.5574 1.54839 8C1.54839 4.44258 4.44258 1.54839 8 1.54839C11.5574 1.54839 14.4516 4.44258 14.4516 8C14.4516 11.5574 11.5574 14.4516 8 14.4516Z" fill="#097EB2"/>
</svg>
